<svg width="621" height="621" viewBox="0 0 621 621" fill="none" xmlns="http://www.w3.org/2000/svg">
<path d="M620.941 310.471C620.941 371.876 602.733 431.902 568.618 482.959C534.503 534.015 486.014 573.809 429.283 597.308C372.552 620.807 310.126 626.955 249.901 614.976C189.676 602.996 134.355 573.427 90.9349 530.006C47.5148 486.586 17.9453 431.266 5.96575 371.04C-6.01383 310.815 0.134522 248.39 23.6333 191.659C47.1321 134.928 86.9259 86.4387 137.983 52.3237C189.039 18.2088 249.065 2.47753e-06 310.471 2.47753e-06C351.244 -0.00514856 391.618 8.0219 429.289 23.6227C466.959 39.2235 501.187 62.0924 530.018 90.9232C558.849 119.754 581.718 153.982 597.319 191.653C612.919 229.323 620.946 269.698 620.941 310.471ZM430.981 379.255C430.948 357.948 423.203 337.373 409.177 321.333L409.137 321.255C399.857 310.687 388.769 301.856 376.392 295.176L376.275 295.098C365.545 289.528 354.126 285.401 342.314 282.824H342.235C331.988 280.64 321.537 279.549 311.059 279.569C304.82 279.606 298.589 279.121 292.432 278.118C285.709 276.998 279.184 274.911 273.059 271.922L272.981 271.882C267.382 269.025 262.429 265.047 258.432 260.196L258.392 260.157C254.259 255.323 251.845 249.254 251.53 242.902C251.836 237.688 253.528 232.65 256.43 228.307C259.332 223.965 263.339 220.474 268.039 218.196C281.229 210.449 296.273 206.424 311.569 206.549C316.745 206.965 321.876 207.831 326.902 209.137L328.824 209.529C335.211 211.067 341.426 213.248 347.373 216.039C352.912 218.554 357.968 222.018 362.314 226.275C365.149 229.362 368.581 231.844 372.401 233.57C376.222 235.296 380.352 236.231 384.543 236.319C388.735 236.406 392.9 235.644 396.789 234.078C400.678 232.513 404.21 230.176 407.172 227.209C410.133 224.242 412.464 220.706 414.022 216.814C415.581 212.923 416.336 208.756 416.241 204.564C416.146 200.373 415.204 196.245 413.471 192.427C411.738 188.61 409.25 185.183 406.157 182.353C396.506 172.776 385.216 165.006 372.824 159.412C362.955 154.85 352.638 151.328 342.039 148.902H342L341.686 148.824V118C341.835 113.831 341.141 109.675 339.648 105.78C338.155 101.885 335.893 98.33 332.996 95.3283C330.099 92.3266 326.627 89.9392 322.787 88.3087C318.948 86.6781 314.819 85.8377 310.647 85.8377C306.476 85.8377 302.347 86.6781 298.507 88.3087C294.667 89.9392 291.195 92.3266 288.299 95.3283C285.402 98.33 283.139 101.885 281.646 105.78C280.153 109.675 279.46 113.831 279.608 118V147.922C263.787 151.222 248.66 157.246 234.902 165.726C221.339 173.597 210.032 184.829 202.071 198.34C194.111 211.851 189.764 227.184 189.451 242.863C189.687 263.508 197.011 283.445 210.196 299.333C219.756 311.086 231.707 320.671 245.255 327.451C256.907 333.25 269.357 337.281 282.196 339.412C291.735 340.991 301.39 341.765 311.059 341.725C317.119 341.692 323.165 342.297 329.098 343.529C335.461 344.927 341.617 347.141 347.412 350.118C353.064 353.251 358.132 357.337 362.392 362.196C366.514 366.944 368.808 373.007 368.863 379.294C368.863 383.098 368.863 392 353.765 401.765C340.371 409.85 325.018 414.109 309.373 414.078C302.868 413.753 296.394 412.966 290 411.725C283.819 410.405 277.788 408.46 272 405.922C266.557 403.504 261.731 399.819 258 395.176C255.356 392.007 252.107 389.396 248.443 387.496C244.778 385.597 240.772 384.447 236.658 384.113C232.543 383.78 228.404 384.27 224.482 385.555C220.559 386.84 216.932 388.893 213.812 391.596C210.693 394.299 208.143 397.596 206.312 401.295C204.482 404.995 203.407 409.022 203.15 413.142C202.894 417.261 203.461 421.391 204.819 425.289C206.177 429.186 208.298 432.775 211.059 435.843C221.279 448.017 234.288 457.543 248.981 463.608C258.738 467.778 268.914 470.894 279.333 472.902H279.608V503.608C279.46 507.777 280.153 511.933 281.646 515.828C283.139 519.723 285.402 523.278 288.299 526.28C291.195 529.281 294.667 531.669 298.507 533.299C302.347 534.93 306.476 535.77 310.647 535.77C314.819 535.77 318.948 534.93 322.787 533.299C326.627 531.669 330.099 529.281 332.996 526.28C335.893 523.278 338.155 519.723 339.648 515.828C341.141 511.933 341.835 507.777 341.686 503.608V472.627C357.974 469.137 373.51 462.776 387.569 453.843C400.665 446.278 411.56 435.424 419.174 422.356C426.788 409.287 430.858 394.457 430.981 379.333V379.255Z" fill="#C9C9C9"/>
</svg>
