<svg width="622" height="622" viewBox="0 0 622 622" fill="none" xmlns="http://www.w3.org/2000/svg">
<path d="M621.471 311.255C621.471 372.66 603.262 432.686 569.147 483.743C535.032 534.8 486.543 574.594 429.812 598.092C373.081 621.591 310.656 627.739 250.43 615.76C190.205 603.78 134.884 574.211 91.4642 530.791C48.0441 487.371 18.4746 432.05 6.49504 371.825C-5.48453 311.599 0.663819 249.174 24.1626 192.443C47.6614 135.712 87.4552 87.223 138.512 53.108C189.568 18.9931 249.595 0.784304 311 0.784304C351.773 0.779153 392.148 8.8062 429.818 24.407C467.488 40.0078 501.716 62.8767 530.547 91.7075C559.378 120.538 582.247 154.767 597.848 192.437C613.449 230.107 621.476 270.482 621.471 311.255ZM431.51 380.039C431.477 358.732 423.732 338.157 409.706 322.118L409.667 322.039C400.387 311.471 389.299 302.64 376.922 295.961L376.804 295.882C366.074 290.312 354.655 286.185 342.843 283.608H342.765C332.517 281.424 322.066 280.333 311.588 280.353C305.35 280.39 299.119 279.905 292.961 278.902C286.238 277.783 279.713 275.696 273.588 272.706L273.51 272.667C267.911 269.809 262.959 265.831 258.961 260.98L258.922 260.941C254.788 256.107 252.374 250.039 252.059 243.686C252.366 238.472 254.057 233.434 256.959 229.092C259.861 224.749 263.869 221.259 268.569 218.98C281.758 211.234 296.802 207.208 312.098 207.333C317.275 207.75 322.405 208.616 327.431 209.922L329.353 210.314C335.74 211.851 341.955 214.032 347.902 216.824C353.441 219.338 358.498 222.802 362.843 227.059C365.679 230.147 369.11 232.628 372.931 234.355C376.751 236.081 380.881 237.016 385.073 237.103C389.264 237.19 393.43 236.428 397.318 234.863C401.207 233.297 404.739 230.96 407.701 227.993C410.663 225.026 412.993 221.49 414.552 217.599C416.11 213.707 416.865 209.54 416.77 205.349C416.675 201.157 415.733 197.029 414 193.212C412.267 189.394 409.779 185.967 406.686 183.137C397.035 173.56 385.745 165.791 373.353 160.196C363.484 155.634 353.167 152.112 342.569 149.686H342.529L342.216 149.608V118.784C342.364 114.615 341.671 110.459 340.178 106.564C338.685 102.669 336.422 99.1143 333.525 96.1126C330.628 93.1109 327.156 90.7235 323.317 89.093C319.477 87.4624 315.348 86.622 311.177 86.622C307.005 86.622 302.876 87.4624 299.036 89.093C295.197 90.7235 291.725 93.1109 288.828 96.1126C285.931 99.1143 283.668 102.669 282.175 106.564C280.682 110.459 279.989 114.615 280.137 118.784V148.706C264.316 152.006 249.189 158.03 235.431 166.51C221.868 174.381 210.562 185.614 202.601 199.124C194.64 212.635 190.294 227.969 189.98 243.647C190.216 264.292 197.54 284.229 210.726 300.118C220.286 311.87 232.236 321.455 245.784 328.235C257.436 334.034 269.886 338.065 282.726 340.196C292.265 341.775 301.92 342.549 311.588 342.51C317.648 342.476 323.694 343.081 329.627 344.314C335.991 345.711 342.146 347.926 347.941 350.902C353.593 354.036 358.661 358.122 362.922 362.98C367.044 367.729 369.338 373.791 369.392 380.078C369.392 383.882 369.392 392.784 354.294 402.549C340.901 410.635 325.547 414.894 309.902 414.863C303.397 414.537 296.923 413.751 290.529 412.51C284.348 411.189 278.318 409.245 272.529 406.706C267.086 404.288 262.26 400.604 258.529 395.961C255.886 392.791 252.636 390.18 248.972 388.281C245.307 386.381 241.301 385.231 237.187 384.898C233.073 384.564 228.933 385.054 225.011 386.339C221.088 387.624 217.461 389.678 214.342 392.38C211.222 395.083 208.672 398.38 206.841 402.08C205.011 405.779 203.936 409.806 203.68 413.926C203.423 418.046 203.991 422.175 205.349 426.073C206.706 429.971 208.828 433.559 211.588 436.627C221.808 448.802 234.817 458.327 249.51 464.392C259.268 468.562 269.443 471.678 279.863 473.686H280.137V504.392C279.989 508.561 280.682 512.717 282.175 516.612C283.668 520.508 285.931 524.062 288.828 527.064C291.725 530.066 295.197 532.453 299.036 534.083C302.876 535.714 307.005 536.554 311.177 536.554C315.348 536.554 319.477 535.714 323.317 534.083C327.156 532.453 330.628 530.066 333.525 527.064C336.422 524.062 338.685 520.508 340.178 516.612C341.671 512.717 342.364 508.561 342.216 504.392V473.412C358.503 469.921 374.039 463.56 388.098 454.627C401.195 447.062 412.089 436.208 419.703 423.14C427.317 410.072 431.387 395.242 431.51 380.118V380.039Z" fill="#378B4E"/>
</svg>
